<?xml version="1.0" encoding="UTF-8"?>
<svg width="340" height="340" viewBox="0 0 340 340" fill="none" xmlns="http://www.w3.org/2000/svg">
  <circle cx="170" cy="170" r="170" fill="#E1D8E9"/>
  <ellipse cx="170" cy="250" rx="90" ry="30" fill="#D5CFE1"/>
  <rect x="110" y="110" width="120" height="90" rx="16" fill="#B6A6CA"/>
  <rect x="120" y="120" width="100" height="70" rx="10" fill="#fff"/>
  <rect x="130" y="130" width="80" height="10" rx="5" fill="#A09ABC"/>
  <rect x="130" y="150" width="60" height="8" rx="4" fill="#D4BEBE"/>
  <rect x="130" y="165" width="50" height="8" rx="4" fill="#D5CFE1"/>
  <rect x="130" y="180" width="70" height="8" rx="4" fill="#B6A6CA"/>
  <ellipse cx="210" cy="200" rx="8" ry="8" fill="#A09ABC"/>
  <ellipse cx="125" cy="200" rx="6" ry="6" fill="#B6A6CA"/>
  <ellipse cx="170" cy="210" rx="12" ry="6" fill="#D4BEBE"/>
  <rect x="150" y="100" width="40" height="10" rx="5" fill="#A09ABC"/>
  <rect x="160" y="90" width="20" height="10" rx="5" fill="#B6A6CA"/>
</svg> 